<svg xmlns="http://www.w3.org/2000/svg" width="4096" height="4096" viewBox="0 0 4096 4096" version="1.1"><path d="" stroke="none" fill="#3c5c94" fill-rule="evenodd"/><path d="M 2382.766 0.567 C 2382.507 0.827, 2376.041 1.285, 2368.397 1.586 C 2360.754 1.887, 2351.012 2.272, 2346.750 2.442 C 2342.488 2.611, 2338.887 2.852, 2338.750 2.976 C 2338.613 3.100, 2335.125 3.391, 2331 3.623 C 2316.910 4.413, 2306.693 5.280, 2285 7.522 C 2282.525 7.778, 2278.363 8.096, 2275.750 8.230 C 2273.137 8.364, 2271 8.753, 2271 9.094 C 2271 9.435, 2269.537 9.631, 2267.750 9.528 C 2265.963 9.426, 2264.050 9.589, 2263.500 9.891 C 2262.950 10.192, 2260.475 10.583, 2258 10.760 C 2252.082 11.182, 2247.500 11.720, 2247.500 11.993 C 2247.500 12.227, 2242.575 12.821, 2237.250 13.229 C 2235.463 13.365, 2234 13.780, 2234 14.151 C 2234 14.521, 2232.762 14.685, 2231.250 14.516 C 2229.738 14.346, 2228.050 14.492, 2227.500 14.839 C 2226.568 15.427, 2222.544 15.933, 2217.250 16.128 C 2216.012 16.174, 2215 16.542, 2215 16.945 C 2215 17.348, 2213.650 17.598, 2212 17.500 C 2210.350 17.402, 2209 17.587, 2209 17.911 C 2209 18.235, 2207.650 18.578, 2206 18.674 C 2199.492 19.050, 2198 19.274, 2198 19.875 C 2198 20.219, 2196.762 20.542, 2195.250 20.594 C 2192.199 20.698, 2189.394 21.313, 2186.750 22.457 C 2185.787 22.873, 2184.325 22.955, 2183.500 22.638 C 2182.675 22.322, 2182 22.459, 2182 22.943 C 2182 23.428, 2180.875 23.700, 2179.500 23.549 C 2178.125 23.399, 2177 23.663, 2177 24.138 C 2177 24.612, 2174.975 25, 2172.500 25 C 2170.025 25, 2168 25.389, 2168 25.863 C 2168 26.338, 2166.988 26.667, 2165.750 26.594 C 2164.512 26.521, 2161.783 27.041, 2159.684 27.749 C 2157.585 28.457, 2155.447 28.776, 2154.934 28.459 C 2154.420 28.142, 2154 28.316, 2154 28.847 C 2154 29.378, 2153.100 29.577, 2152 29.290 C 2150.900 29.002, 2150 29.243, 2150 29.826 C 2150 30.409, 2149.100 30.712, 2148 30.500 C 2146.900 30.288, 2146 30.513, 2146 31 C 2146 31.487, 2145.035 31.699, 2143.856 31.472 C 2142.677 31.245, 2141.215 31.371, 2140.606 31.752 C 2139.318 32.558, 2137.220 33.111, 2134.750 33.297 C 2133.787 33.369, 2133 33.830, 2133 34.321 C 2133 34.812, 2132.325 34.955, 2131.500 34.638 C 2130.675 34.322, 2130 34.473, 2130 34.974 C 2130 35.475, 2129.100 35.712, 2128 35.500 C 2126.900 35.288, 2126 35.587, 2126 36.164 C 2126 36.742, 2125.268 36.933, 2124.373 36.590 C 2123.479 36.246, 2122.129 36.478, 2121.373 37.105 C 2120.618 37.732, 2120 37.910, 2120 37.500 C 2120 37.090, 2119.314 37.324, 2118.476 38.020 C 2117.638 38.716, 2116.680 39.014, 2116.349 38.682 C 2116.018 38.351, 2114.511 38.719, 2113 39.500 C 2111.489 40.281, 2109.982 40.649, 2109.651 40.318 C 2109.320 39.986, 2108.382 40.268, 2107.568 40.944 C 2106.754 41.619, 2105.618 41.882, 2105.044 41.527 C 2104.470 41.172, 2104 41.385, 2104 42 C 2104 42.615, 2103.530 42.828, 2102.956 42.473 C 2102.382 42.118, 2101.277 42.355, 2100.500 43 C 2099.723 43.645, 2098.618 43.882, 2098.044 43.527 C 2097.470 43.172, 2097 43.385, 2097 44 C 2097 44.615, 2096.500 44.809, 2095.888 44.431 C 2095.277 44.053, 2094.472 44.237, 2094.099 44.840 C 2093.726 45.443, 2091.977 46.046, 2090.211 46.181 C 2088.445 46.315, 2087 46.828, 2087 47.320 C 2087 47.812, 2086.395 47.982, 2085.655 47.698 C 2084.915 47.414, 2082.373 48.049, 2080.006 49.109 C 2077.639 50.168, 2075.468 50.802, 2075.182 50.516 C 2074.896 50.230, 2073.761 50.784, 2072.659 51.748 C 2071.224 53.004, 2070.895 53.075, 2071.500 52 C 2072.059 51.006, 2071.633 51.123, 2070.235 52.348 C 2069.075 53.364, 2067.686 53.924, 2067.148 53.592 C 2066.611 53.259, 2066.020 53.427, 2065.835 53.965 C 2065.651 54.502, 2064.600 55.081, 2063.500 55.250 C 2062.400 55.419, 2060.938 55.909, 2060.250 56.338 C 2059.563 56.767, 2058.550 56.840, 2058 56.500 C 2057.450 56.160, 2057 56.434, 2057 57.108 C 2057 57.782, 2056.718 58.051, 2056.373 57.707 C 2056.028 57.362, 2054.511 57.719, 2053 58.500 C 2051.489 59.281, 2049.972 59.638, 2049.627 59.293 C 2049.282 58.949, 2049 59.192, 2049 59.833 C 2049 60.475, 2047.677 61, 2046.059 61 C 2044.441 61, 2042.876 61.392, 2042.580 61.871 C 2042.284 62.350, 2040.656 63.019, 2038.963 63.357 C 2037.269 63.696, 2035.177 64.680, 2034.313 65.544 C 2033.449 66.408, 2032.125 66.878, 2031.371 66.589 C 2030.617 66.300, 2030 66.547, 2030 67.138 C 2030 67.730, 2029.325 67.955, 2028.500 67.638 C 2027.675 67.322, 2027 67.525, 2027 68.090 C 2027 68.656, 2026.550 68.840, 2026 68.500 C 2025.450 68.160, 2025 68.407, 2025 69.048 C 2025 69.689, 2024.354 69.966, 2023.564 69.663 C 2022.774 69.360, 2021.086 69.919, 2019.814 70.907 C 2018.541 71.894, 2016.938 72.506, 2016.250 72.267 C 2015.563 72.029, 2015 72.347, 2015 72.976 C 2015 73.604, 2014.631 73.890, 2014.179 73.611 C 2013.728 73.332, 2011.877 74.005, 2010.067 75.106 C 2008.256 76.207, 2006.538 76.872, 2006.250 76.583 C 2005.962 76.295, 2004.437 76.976, 2002.863 78.098 C 2001.288 79.219, 2000 79.825, 2000 79.446 C 2000 79.066, 1999.264 79.366, 1998.364 80.112 C 1997.465 80.859, 1996.227 81.524, 1995.614 81.591 C 1993.365 81.836, 1990 83.254, 1990 83.956 C 1990 84.354, 1988.846 85.205, 1987.436 85.847 C 1985.644 86.664, 1985.078 86.682, 1985.557 85.908 C 1986.297 84.711, 1981.896 86.739, 1981 88.008 C 1980.567 88.622, 1971.377 93.145, 1970 93.422 C 1967.761 93.873, 1963 96.429, 1963 97.180 C 1963 97.696, 1962.586 97.862, 1962.081 97.550 C 1961.575 97.237, 1960.504 97.639, 1959.700 98.443 C 1958.896 99.247, 1957.960 99.626, 1957.619 99.286 C 1957.279 98.945, 1957 99.192, 1957 99.833 C 1957 100.475, 1956.662 100.947, 1956.250 100.882 C 1954.296 100.573, 1952.920 101.169, 1951.116 103.106 C 1950.036 104.265, 1948.716 104.942, 1948.181 104.612 C 1947.647 104.282, 1946.941 104.712, 1946.612 105.569 C 1946.283 106.426, 1945.561 106.847, 1945.007 106.504 C 1944.453 106.162, 1944 106.385, 1944 107 C 1944 107.615, 1943.550 107.840, 1943 107.500 C 1942.450 107.160, 1942 107.385, 1942 108 C 1942 108.615, 1941.547 108.838, 1940.993 108.496 C 1940.439 108.153, 1939.727 108.548, 1939.410 109.373 C 1939.073 110.253, 1938.180 110.623, 1937.253 110.267 C 1936.207 109.865, 1935.916 110.056, 1936.395 110.830 C 1936.858 111.579, 1936.374 112, 1935.049 112 C 1933.911 112, 1932.210 112.900, 1931.268 114 C 1930.326 115.100, 1929.036 116, 1928.400 116 C 1927.765 116, 1926.689 116.670, 1926.009 117.489 C 1925.329 118.308, 1924.374 118.731, 1923.887 118.430 C 1923.399 118.129, 1923 118.385, 1923 119 C 1923 119.615, 1922.634 119.892, 1922.188 119.616 C 1921.741 119.340, 1920.096 120.213, 1918.532 121.557 C 1916.968 122.901, 1914.971 124.014, 1914.094 124.032 C 1912.051 124.073, 1908.828 126.495, 1909.682 127.349 C 1910.040 127.707, 1909.808 128.056, 1909.167 128.125 C 1908.525 128.194, 1907.550 128.363, 1907 128.500 C 1906.450 128.637, 1905.523 128.806, 1904.941 128.875 C 1904.359 128.944, 1904.152 129.437, 1904.482 129.971 C 1904.812 130.505, 1903.971 131.220, 1902.613 131.561 C 1901.256 131.902, 1899.901 132.815, 1899.604 133.590 C 1899.306 134.366, 1898.149 135, 1897.031 135 C 1895.914 135, 1895 135.450, 1895 136 C 1895 136.550, 1894.433 137, 1893.741 137 C 1893.048 137, 1891.919 137.900, 1891.232 139 C 1890.545 140.100, 1889.199 141.014, 1888.242 141.032 C 1886.085 141.071, 1882.797 143.463, 1883.682 144.349 C 1884.040 144.707, 1883.564 145, 1882.624 145 C 1880.830 145, 1879.296 146.029, 1875.541 149.750 C 1874.292 150.988, 1872.760 152, 1872.135 152 C 1871.511 152, 1871 152.525, 1871 153.167 C 1871 153.808, 1870.748 154.081, 1870.439 153.773 C 1870.131 153.464, 1868.802 154.289, 1867.485 155.606 C 1866.168 156.923, 1864.369 158, 1863.486 158 C 1862.604 158, 1862.160 158.450, 1862.500 159 C 1862.840 159.550, 1862.579 160, 1861.919 160 C 1861.260 160, 1860.075 160.787, 1859.286 161.750 C 1858.348 162.895, 1858.076 162.981, 1858.500 162 C 1858.857 161.175, 1858.176 161.740, 1856.987 163.255 C 1855.798 164.770, 1854.435 165.769, 1853.957 165.473 C 1853.479 165.178, 1852.341 166.076, 1851.429 167.468 C 1850.517 168.861, 1849.372 170, 1848.885 170 C 1848.398 170, 1847.146 170.788, 1846.103 171.750 C 1845.060 172.713, 1842.922 174.523, 1841.353 175.773 C 1839.784 177.023, 1836.866 179.386, 1834.868 181.023 C 1832.870 182.660, 1830.706 184, 1830.059 184 C 1829.412 184, 1829.160 184.450, 1829.500 185 C 1829.840 185.550, 1829.508 186, 1828.762 186 C 1828.016 186, 1826.302 187.331, 1824.953 188.958 C 1823.604 190.584, 1822.184 191.934, 1821.798 191.958 C 1821.412 191.981, 1819.571 193.571, 1817.706 195.491 C 1815.841 197.411, 1814.019 198.686, 1813.658 198.324 C 1813.296 197.963, 1813 198.401, 1813 199.298 C 1813 200.195, 1811.987 201.456, 1810.750 202.099 C 1809.513 202.742, 1806.531 205.345, 1804.123 207.884 C 1801.716 210.423, 1799.320 212.376, 1798.799 212.225 C 1798.278 212.074, 1798.105 212.361, 1798.415 212.862 C 1799.106 213.980, 1796.575 216.241, 1795.658 215.325 C 1795.296 214.963, 1795 215.417, 1795 216.333 C 1795 217.250, 1794.425 218, 1793.722 218 C 1792.440 218, 1788.548 221.888, 1788.517 223.200 C 1788.508 223.585, 1787.871 224.485, 1787.103 225.200 C 1785.949 226.274, 1785.846 226.256, 1786.508 225.095 C 1787.045 224.154, 1786.928 223.926, 1786.155 224.405 C 1785.520 224.797, 1785 225.793, 1785 226.618 C 1785 227.443, 1784.570 227.852, 1784.044 227.527 C 1783.518 227.202, 1782.290 228.188, 1781.316 229.718 C 1780.341 231.248, 1777.171 234.757, 1774.272 237.517 C 1771.372 240.276, 1769 243.099, 1769 243.791 C 1769 244.483, 1767.875 245.477, 1766.500 246 C 1765.125 246.523, 1764 247.377, 1764 247.898 C 1764 248.420, 1762.537 250.319, 1760.750 252.120 C 1758.963 253.921, 1758.175 255.035, 1759 254.595 C 1759.825 254.156, 1759.033 255.003, 1757.240 256.478 C 1755.448 257.953, 1754.244 259.585, 1754.565 260.105 C 1754.886 260.624, 1754.778 260.926, 1754.324 260.775 C 1753.871 260.624, 1753.275 260.935, 1753 261.467 C 1752.473 262.485, 1750.236 265.021, 1743.250 272.517 C 1740.912 275.025, 1739 277.709, 1739 278.482 C 1739 279.254, 1738.167 280.475, 1737.149 281.193 C 1736.131 281.912, 1734.544 283.962, 1733.623 285.750 C 1732.702 287.538, 1731.541 289, 1731.042 289 C 1730.543 289, 1729.847 289.907, 1729.495 291.015 C 1729.144 292.123, 1728.438 292.771, 1727.928 292.456 C 1727.418 292.140, 1727 292.568, 1727 293.407 C 1727 294.245, 1725.763 296.197, 1724.250 297.744 C 1721.383 300.677, 1721 301.303, 1721 303.059 C 1721 303.641, 1720.563 303.848, 1720.029 303.518 C 1719.495 303.188, 1718.772 304.058, 1718.423 305.452 C 1718.073 306.846, 1717.432 307.767, 1716.998 307.499 C 1716.324 307.082, 1714.862 309.249, 1714.586 311.071 C 1714.539 311.386, 1713.713 312.430, 1712.750 313.393 C 1711.787 314.355, 1711 315.812, 1711 316.630 C 1711 317.449, 1710.550 317.840, 1710 317.500 C 1709.450 317.160, 1709 317.783, 1709 318.884 C 1709 319.986, 1708.211 321.475, 1707.246 322.193 C 1705.158 323.748, 1699.467 332.178, 1699.781 333.250 C 1699.901 333.663, 1699.523 334, 1698.941 334 C 1698.359 334, 1698.160 334.450, 1698.500 335 C 1698.840 335.550, 1698.641 336, 1698.059 336 C 1697.477 336, 1697 336.427, 1697 336.948 C 1697 337.470, 1695.875 339.111, 1694.500 340.595 C 1693.125 342.078, 1692 343.901, 1692 344.646 C 1692 345.391, 1691.475 346, 1690.833 346 C 1690.192 346, 1689.929 346.262, 1690.250 346.583 C 1690.571 346.904, 1689.954 348.046, 1688.880 349.120 C 1687.806 350.194, 1687.153 351.438, 1687.429 351.885 C 1687.705 352.332, 1687.046 353.646, 1685.965 354.807 C 1684.884 355.967, 1684 357.637, 1684 358.517 C 1684 359.398, 1683.550 359.840, 1683 359.500 C 1682.450 359.160, 1681.944 359.359, 1681.875 359.941 C 1681.806 360.523, 1681.694 361.370, 1681.625 361.821 C 1681.556 362.273, 1680.713 363.430, 1679.750 364.393 C 1678.787 365.355, 1678 367.037, 1678 368.130 C 1678 369.224, 1677.597 369.869, 1677.105 369.565 C 1676.612 369.260, 1675.943 369.707, 1675.616 370.558 C 1675.283 371.426, 1675.448 371.841, 1675.992 371.505 C 1676.525 371.176, 1676.182 372.274, 1675.230 373.947 C 1674.279 375.619, 1673.162 376.990, 1672.750 376.994 C 1672.338 376.997, 1672 377.482, 1672 378.071 C 1672 378.661, 1671.325 379.818, 1670.500 380.643 C 1669.675 381.468, 1669 383.011, 1669 384.071 C 1669 385.132, 1668.580 386, 1668.067 386 C 1667.554 386, 1666.818 387.012, 1666.430 388.250 C 1666.042 389.487, 1664.893 391.565, 1663.876 392.868 C 1662.859 394.170, 1662.273 395.632, 1662.573 396.118 C 1662.873 396.603, 1662.566 397, 1661.892 397 C 1661.218 397, 1660.929 397.263, 1661.250 397.583 C 1662.064 398.398, 1657.122 408, 1655.888 408 C 1655.335 408, 1655.138 408.414, 1655.450 408.919 C 1655.763 409.425, 1655.416 410.442, 1654.679 411.178 C 1653.942 411.915, 1653.525 413.076, 1653.753 413.759 C 1653.981 414.442, 1653.653 415, 1653.024 415 C 1652.396 415, 1652.162 415.453, 1652.504 416.007 C 1652.847 416.561, 1652.426 417.283, 1651.569 417.612 C 1650.712 417.941, 1650.240 418.579, 1650.518 419.030 C 1651.165 420.075, 1648.955 425, 1647.839 425 C 1647.378 425, 1647.049 425.337, 1647.108 425.750 C 1647.320 427.222, 1645.752 431, 1644.929 431 C 1644.468 431, 1643.798 432.559, 1643.441 434.464 C 1643.083 436.370, 1642.163 438.450, 1641.395 439.087 C 1640.628 439.724, 1640 441.090, 1640 442.122 C 1640 443.155, 1639.598 444, 1639.107 444 C 1638.616 444, 1637.946 444.698, 1637.618 445.552 C 1637.216 446.600, 1637.425 446.869, 1638.261 446.380 C 1638.943 445.982, 1638.712 446.558, 1637.748 447.659 C 1636.784 448.761, 1636.297 449.963, 1636.664 450.331 C 1637.032 450.699, 1636.782 451, 1636.108 451 C 1635.434 451, 1635.160 451.450, 1635.500 452 C 1635.840 452.550, 1635.604 453, 1634.976 453 C 1634.347 453, 1634.032 453.563, 1634.274 454.250 C 1634.516 454.938, 1633.830 456.763, 1632.748 458.308 C 1631.667 459.852, 1631.057 461.391, 1631.394 461.728 C 1631.731 462.065, 1631.320 463.389, 1630.480 464.670 C 1629.641 465.952, 1629.222 467, 1629.550 467 C 1629.877 467, 1629.238 468.154, 1628.128 469.564 C 1627.019 470.974, 1626.360 472.774, 1626.663 473.564 C 1626.966 474.354, 1626.689 475, 1626.048 475 C 1625.407 475, 1625.141 475.419, 1625.457 475.931 C 1625.774 476.443, 1625.568 477.149, 1625 477.500 C 1624.432 477.851, 1624.226 478.557, 1624.543 479.069 C 1624.859 479.581, 1624.754 480.002, 1624.309 480.004 C 1623.223 480.009, 1619.574 489.001, 1619.744 491.254 C 1619.825 492.330, 1619.437 492.770, 1618.770 492.358 C 1618.051 491.914, 1617.885 492.259, 1618.299 493.336 C 1618.650 494.252, 1618.454 495, 1617.862 495 C 1617.270 495, 1617.045 495.675, 1617.362 496.500 C 1617.678 497.325, 1617.475 498, 1616.910 498 C 1616.344 498, 1616.141 498.419, 1616.457 498.931 C 1616.774 499.443, 1616.568 500.149, 1616 500.500 C 1615.432 500.851, 1615.207 501.526, 1615.500 502 C 1615.793 502.474, 1615.568 503.149, 1615 503.500 C 1614.432 503.851, 1614.226 504.557, 1614.543 505.069 C 1614.859 505.581, 1614.593 506, 1613.952 506 C 1613.311 506, 1613.045 506.675, 1613.362 507.500 C 1613.678 508.325, 1613.426 509, 1612.802 509 C 1612.178 509, 1611.949 509.282, 1612.293 509.627 C 1612.638 509.972, 1612.252 511.547, 1611.434 513.127 C 1610.617 514.707, 1610.298 516.007, 1610.724 516.015 C 1611.151 516.024, 1610.894 516.415, 1610.152 516.885 C 1609.411 517.354, 1608.736 518.922, 1608.652 520.369 C 1608.569 521.815, 1608.177 522.999, 1607.781 522.999 C 1607.386 523, 1607.322 523.675, 1607.638 524.500 C 1607.955 525.325, 1607.764 526, 1607.214 526 C 1606.664 526, 1605.946 526.698, 1605.618 527.552 C 1605.216 528.600, 1605.425 528.869, 1606.261 528.380 C 1606.943 527.982, 1606.658 528.617, 1605.629 529.791 C 1604.600 530.965, 1604.012 532.588, 1604.323 533.398 C 1604.633 534.208, 1604.487 535.012, 1603.997 535.185 C 1603.507 535.358, 1602.836 537.075, 1602.506 539 C 1601.504 544.848, 1599.738 550, 1598.735 550 C 1598.213 550, 1598.045 550.675, 1598.362 551.500 C 1598.678 552.325, 1598.527 553, 1598.026 553 C 1597.525 553, 1597.290 553.912, 1597.505 555.027 C 1597.754 556.320, 1597.495 556.806, 1596.790 556.370 C 1596.059 555.919, 1595.876 556.418, 1596.249 557.844 C 1596.568 559.063, 1596.346 560, 1595.740 560 C 1595.150 560, 1594.922 560.256, 1595.235 560.568 C 1595.547 560.881, 1594.985 563.459, 1593.985 566.299 C 1592.985 569.138, 1592.381 571.807, 1592.642 572.231 C 1592.904 572.654, 1592.615 573, 1592 573 C 1591.385 573, 1591.172 573.470, 1591.527 574.044 C 1591.882 574.618, 1591.628 575.743, 1590.964 576.544 C 1590.299 577.345, 1590.090 578, 1590.500 578 C 1590.910 578, 1590.701 578.655, 1590.036 579.456 C 1589.372 580.257, 1589.113 581.374, 1589.461 581.937 C 1589.810 582.501, 1588.981 585.719, 1587.620 589.089 C 1586.259 592.459, 1585.386 595.842, 1585.680 596.608 C 1585.974 597.373, 1585.663 598, 1584.990 598 C 1584.259 598, 1583.977 598.805, 1584.290 600 C 1584.577 601.100, 1584.501 602, 1584.121 602 C 1583.740 602, 1583.369 602.788, 1583.297 603.750 C 1583.163 605.528, 1582.319 609.294, 1581.952 609.750 C 1581.841 609.888, 1581.638 610.900, 1581.500 612 C 1581.362 613.100, 1581.140 614.337, 1581.007 614.750 C 1580.873 615.163, 1580.832 615.885, 1580.917 616.355 C 1581.001 616.826, 1580.571 617.812, 1579.962 618.546 C 1579.352 619.281, 1578.757 621.147, 1578.639 622.693 C 1578.521 624.240, 1578.127 625.985, 1577.764 626.573 C 1576.996 627.816, 1576.042 632.032, 1575.405 637 C 1575.158 638.925, 1574.516 641.805, 1573.978 643.399 C 1573.440 644.994, 1573 647.555, 1573 649.090 C 1573 650.626, 1572.519 652.179, 1571.932 652.542 C 1571.344 652.905, 1571.088 653.788, 1571.363 654.503 C 1571.638 655.219, 1571.588 656.079, 1571.252 656.415 C 1570.916 656.750, 1570.465 658.925, 1570.248 661.248 C 1570.032 663.570, 1569.430 665.982, 1568.910 666.608 C 1568.391 667.234, 1568.246 668.479, 1568.590 669.373 C 1568.957 670.329, 1568.710 671, 1567.990 671 C 1567.221 671, 1566.946 671.938, 1567.249 673.524 C 1567.515 674.912, 1567.349 676.284, 1566.881 676.573 C 1566.413 676.863, 1566.045 678.089, 1566.063 679.300 C 1566.094 681.331, 1565.634 684.483, 1564.575 689.500 C 1564.343 690.600, 1564.085 691.500, 1564.002 691.500 C 1563.768 691.500, 1563.146 695.100, 1562.620 699.500 C 1562.358 701.700, 1562.053 703.500, 1561.944 703.500 C 1561.691 703.500, 1561.086 706.628, 1560.588 710.500 C 1559.652 717.784, 1558.856 722.645, 1558.294 724.500 C 1557.960 725.600, 1557.519 727.625, 1557.313 729 C 1556.506 734.376, 1555.791 740.571, 1555.811 742 C 1555.823 742.825, 1555.584 744.175, 1555.282 745 C 1554.606 746.842, 1553.996 751.270, 1553.732 756.250 C 1553.623 758.313, 1553.285 760, 1552.981 760 C 1552.677 760, 1552.372 761.462, 1552.302 763.250 C 1552.181 766.356, 1551.400 773.070, 1550.413 779.500 C 1549.653 784.449, 1548.949 792.316, 1548.996 795.312 C 1549.021 796.859, 1548.730 798.628, 1548.349 799.244 C 1547.969 799.860, 1547.549 801.969, 1547.416 803.932 C 1547.284 805.894, 1546.883 810.875, 1546.526 815 C 1546.169 819.125, 1545.793 823.738, 1545.691 825.250 C 1545.588 826.763, 1545.187 828, 1544.800 828 C 1544.412 828, 1544.324 830.475, 1544.603 833.500 C 1544.911 836.829, 1544.717 839, 1544.114 839 C 1543.530 839, 1543.277 841.147, 1543.503 844.185 C 1543.715 847.037, 1543.623 849.801, 1543.298 850.327 C 1542.718 851.266, 1542.309 855.547, 1541.468 869.500 C 1541.236 873.350, 1540.822 879.875, 1540.549 884 C 1536.437 946.047, 1536.332 955.489, 1536.147 1278.750 L 1536 1536 1152 1536 L 768 1536 768 1920 L 768 2304 1152 2304 L 1536 2304 1536 3200 L 1536 4096 1920 4096 L 2304 4096 2304 3200.001 L 2304 2304.003 2688.214 2303.751 L 3072.429 2303.500 3072.584 2300.500 C 3072.670 2298.850, 3072.847 2297.500, 3072.977 2297.500 C 3073.108 2297.500, 3073.333 2296.150, 3073.477 2294.500 C 3073.622 2292.850, 3073.847 2291.500, 3073.977 2291.500 C 3074.108 2291.500, 3074.333 2290.150, 3074.477 2288.500 C 3074.622 2286.850, 3074.847 2285.500, 3074.977 2285.500 C 3075.108 2285.500, 3075.333 2284.150, 3075.477 2282.500 C 3075.622 2280.850, 3075.847 2279.500, 3075.977 2279.500 C 3076.108 2279.500, 3076.333 2278.150, 3076.477 2276.500 C 3076.622 2274.850, 3076.847 2273.500, 3076.977 2273.500 C 3077.108 2273.500, 3077.333 2272.150, 3077.477 2270.500 C 3077.622 2268.850, 3077.847 2267.500, 3077.977 2267.500 C 3078.108 2267.500, 3078.333 2266.150, 3078.477 2264.500 C 3078.622 2262.850, 3078.847 2261.500, 3078.977 2261.500 C 3079.108 2261.500, 3079.333 2260.150, 3079.477 2258.500 C 3079.622 2256.850, 3079.847 2255.500, 3079.977 2255.500 C 3080.108 2255.500, 3080.333 2254.150, 3080.477 2252.500 C 3080.622 2250.850, 3080.847 2249.500, 3080.977 2249.500 C 3081.108 2249.500, 3081.333 2248.150, 3081.477 2246.500 C 3081.622 2244.850, 3081.847 2243.500, 3081.977 2243.500 C 3082.108 2243.500, 3082.333 2242.150, 3082.477 2240.500 C 3082.622 2238.850, 3082.847 2237.500, 3082.977 2237.500 C 3083.108 2237.500, 3083.333 2236.150, 3083.477 2234.500 C 3083.622 2232.850, 3083.847 2231.500, 3083.977 2231.500 C 3084.108 2231.500, 3084.333 2230.150, 3084.477 2228.500 C 3084.622 2226.850, 3084.847 2225.500, 3084.977 2225.500 C 3085.108 2225.500, 3085.333 2224.150, 3085.477 2222.500 C 3085.622 2220.850, 3085.847 2219.500, 3085.977 2219.500 C 3086.108 2219.500, 3086.333 2218.150, 3086.477 2216.500 C 3086.622 2214.850, 3086.847 2213.500, 3086.977 2213.500 C 3087.108 2213.500, 3087.333 2212.150, 3087.477 2210.500 C 3087.622 2208.850, 3087.847 2207.500, 3087.977 2207.500 C 3088.108 2207.500, 3088.333 2206.150, 3088.477 2204.500 C 3088.622 2202.850, 3088.847 2201.500, 3088.977 2201.500 C 3089.108 2201.500, 3089.333 2200.150, 3089.477 2198.500 C 3089.622 2196.850, 3089.847 2195.500, 3089.977 2195.500 C 3090.108 2195.500, 3090.333 2194.150, 3090.477 2192.500 C 3090.622 2190.850, 3090.847 2189.500, 3090.977 2189.500 C 3091.108 2189.500, 3091.333 2188.150, 3091.477 2186.500 C 3091.622 2184.850, 3091.847 2183.500, 3091.977 2183.500 C 3092.108 2183.500, 3092.333 2182.150, 3092.477 2180.500 C 3092.622 2178.850, 3092.847 2177.500, 3092.977 2177.500 C 3093.108 2177.500, 3093.333 2176.150, 3093.477 2174.500 C 3093.622 2172.850, 3093.847 2171.500, 3093.977 2171.500 C 3094.108 2171.500, 3094.333 2170.150, 3094.477 2168.500 C 3094.622 2166.850, 3094.847 2165.500, 3094.977 2165.500 C 3095.108 2165.500, 3095.333 2164.150, 3095.477 2162.500 C 3095.622 2160.850, 3095.847 2159.500, 3095.977 2159.500 C 3096.108 2159.500, 3096.333 2158.150, 3096.477 2156.500 C 3096.622 2154.850, 3096.847 2153.500, 3096.977 2153.500 C 3097.108 2153.500, 3097.333 2152.150, 3097.477 2150.500 C 3097.622 2148.850, 3097.847 2147.500, 3097.977 2147.500 C 3098.108 2147.500, 3098.333 2146.150, 3098.477 2144.500 C 3098.622 2142.850, 3098.847 2141.500, 3098.977 2141.500 C 3099.108 2141.500, 3099.333 2140.150, 3099.477 2138.500 C 3099.622 2136.850, 3099.847 2135.500, 3099.977 2135.500 C 3100.108 2135.500, 3100.333 2134.150, 3100.477 2132.500 C 3100.622 2130.850, 3100.847 2129.500, 3100.977 2129.500 C 3101.108 2129.500, 3101.333 2128.150, 3101.477 2126.500 C 3101.622 2124.850, 3101.847 2123.500, 3101.977 2123.500 C 3102.108 2123.500, 3102.333 2122.150, 3102.477 2120.500 C 3102.622 2118.850, 3102.847 2117.500, 3102.977 2117.500 C 3103.108 2117.500, 3103.333 2116.150, 3103.477 2114.500 C 3103.622 2112.850, 3103.847 2111.500, 3103.977 2111.500 C 3104.108 2111.500, 3104.333 2110.150, 3104.477 2108.500 C 3104.622 2106.850, 3104.847 2105.500, 3104.977 2105.500 C 3105.108 2105.500, 3105.333 2104.150, 3105.477 2102.500 C 3105.622 2100.850, 3105.847 2099.500, 3105.977 2099.500 C 3106.108 2099.500, 3106.333 2098.150, 3106.477 2096.500 C 3106.622 2094.850, 3106.847 2093.500, 3106.977 2093.500 C 3107.108 2093.500, 3107.333 2092.150, 3107.477 2090.500 C 3107.622 2088.850, 3107.847 2087.500, 3107.977 2087.500 C 3108.108 2087.500, 3108.333 2086.150, 3108.477 2084.500 C 3108.622 2082.850, 3108.847 2081.500, 3108.977 2081.500 C 3109.108 2081.500, 3109.333 2080.150, 3109.477 2078.500 C 3109.622 2076.850, 3109.847 2075.500, 3109.977 2075.500 C 3110.108 2075.500, 3110.333 2074.150, 3110.477 2072.500 C 3110.622 2070.850, 3110.847 2069.500, 3110.977 2069.500 C 3111.108 2069.500, 3111.333 2068.150, 3111.477 2066.500 C 3111.622 2064.850, 3111.847 2063.500, 3111.977 2063.500 C 3112.108 2063.500, 3112.333 2062.150, 3112.477 2060.500 C 3112.622 2058.850, 3112.847 2057.500, 3112.977 2057.500 C 3113.108 2057.500, 3113.333 2056.150, 3113.477 2054.500 C 3113.622 2052.850, 3113.847 2051.500, 3113.977 2051.500 C 3114.108 2051.500, 3114.333 2050.150, 3114.477 2048.500 C 3114.622 2046.850, 3114.847 2045.500, 3114.977 2045.500 C 3115.108 2045.500, 3115.333 2044.150, 3115.477 2042.500 C 3115.622 2040.850, 3115.847 2039.500, 3115.977 2039.500 C 3116.108 2039.500, 3116.333 2038.150, 3116.477 2036.500 C 3116.622 2034.850, 3116.847 2033.500, 3116.977 2033.500 C 3117.108 2033.500, 3117.333 2032.150, 3117.477 2030.500 C 3117.622 2028.850, 3117.847 2027.500, 3117.977 2027.500 C 3118.108 2027.500, 3118.333 2026.150, 3118.477 2024.500 C 3118.622 2022.850, 3118.847 2021.500, 3118.977 2021.500 C 3119.108 2021.500, 3119.333 2020.150, 3119.477 2018.500 C 3119.622 2016.850, 3119.847 2015.500, 3119.977 2015.500 C 3120.108 2015.500, 3120.333 2014.150, 3120.477 2012.500 C 3120.622 2010.850, 3120.847 2009.500, 3120.977 2009.500 C 3121.108 2009.500, 3121.333 2008.150, 3121.477 2006.500 C 3121.622 2004.850, 3121.847 2003.500, 3121.977 2003.500 C 3122.108 2003.500, 3122.333 2002.150, 3122.477 2000.500 C 3122.622 1998.850, 3122.847 1997.500, 3122.977 1997.500 C 3123.108 1997.500, 3123.333 1996.150, 3123.477 1994.500 C 3123.622 1992.850, 3123.847 1991.500, 3123.977 1991.500 C 3124.108 1991.500, 3124.333 1990.150, 3124.477 1988.500 C 3124.622 1986.850, 3124.847 1985.500, 3124.977 1985.500 C 3125.108 1985.500, 3125.333 1984.150, 3125.477 1982.500 C 3125.622 1980.850, 3125.847 1979.500, 3125.977 1979.500 C 3126.108 1979.500, 3126.333 1978.150, 3126.477 1976.500 C 3126.622 1974.850, 3126.847 1973.500, 3126.977 1973.500 C 3127.108 1973.500, 3127.333 1972.150, 3127.477 1970.500 C 3127.622 1968.850, 3127.847 1967.500, 3127.977 1967.500 C 3128.108 1967.500, 3128.333 1966.150, 3128.477 1964.500 C 3128.622 1962.850, 3128.847 1961.500, 3128.977 1961.500 C 3129.108 1961.500, 3129.333 1960.150, 3129.477 1958.500 C 3129.622 1956.850, 3129.847 1955.500, 3129.977 1955.500 C 3130.108 1955.500, 3130.333 1954.150, 3130.477 1952.500 C 3130.622 1950.850, 3130.847 1949.500, 3130.977 1949.500 C 3131.108 1949.500, 3131.333 1948.150, 3131.477 1946.500 C 3131.622 1944.850, 3131.847 1943.500, 3131.977 1943.500 C 3132.108 1943.500, 3132.333 1942.150, 3132.477 1940.500 C 3132.622 1938.850, 3132.847 1937.500, 3132.977 1937.500 C 3133.108 1937.500, 3133.333 1936.150, 3133.477 1934.500 C 3133.622 1932.850, 3133.847 1931.500, 3133.977 1931.500 C 3134.108 1931.500, 3134.333 1930.150, 3134.477 1928.500 C 3134.622 1926.850, 3134.847 1925.500, 3134.977 1925.500 C 3135.108 1925.500, 3135.333 1924.150, 3135.477 1922.500 C 3135.622 1920.850, 3135.847 1919.500, 3135.977 1919.500 C 3136.108 1919.500, 3136.333 1918.150, 3136.477 1916.500 C 3136.622 1914.850, 3136.847 1913.500, 3136.977 1913.500 C 3137.108 1913.500, 3137.333 1912.150, 3137.477 1910.500 C 3137.622 1908.850, 3137.847 1907.500, 3137.977 1907.500 C 3138.108 1907.500, 3138.333 1906.150, 3138.477 1904.500 C 3138.622 1902.850, 3138.847 1901.500, 3138.977 1901.500 C 3139.108 1901.500, 3139.333 1900.150, 3139.477 1898.500 C 3139.622 1896.850, 3139.847 1895.500, 3139.977 1895.500 C 3140.108 1895.500, 3140.333 1894.150, 3140.477 1892.500 C 3140.622 1890.850, 3140.847 1889.500, 3140.977 1889.500 C 3141.108 1889.500, 3141.333 1888.150, 3141.477 1886.500 C 3141.622 1884.850, 3141.847 1883.500, 3141.977 1883.500 C 3142.108 1883.500, 3142.333 1882.150, 3142.477 1880.500 C 3142.622 1878.850, 3142.847 1877.500, 3142.977 1877.500 C 3143.108 1877.500, 3143.333 1876.150, 3143.477 1874.500 C 3143.622 1872.850, 3143.847 1871.500, 3143.977 1871.500 C 3144.108 1871.500, 3144.333 1870.150, 3144.477 1868.500 C 3144.622 1866.850, 3144.847 1865.500, 3144.977 1865.500 C 3145.108 1865.500, 3145.333 1864.150, 3145.477 1862.500 C 3145.622 1860.850, 3145.847 1859.500, 3145.977 1859.500 C 3146.108 1859.500, 3146.333 1858.150, 3146.477 1856.500 C 3146.622 1854.850, 3146.847 1853.500, 3146.977 1853.500 C 3147.108 1853.500, 3147.333 1852.150, 3147.477 1850.500 C 3147.622 1848.850, 3147.847 1847.500, 3147.977 1847.500 C 3148.108 1847.500, 3148.333 1846.150, 3148.477 1844.500 C 3148.622 1842.850, 3148.847 1841.500, 3148.977 1841.500 C 3149.108 1841.500, 3149.333 1840.150, 3149.477 1838.500 C 3149.622 1836.850, 3149.847 1835.500, 3149.977 1835.500 C 3150.108 1835.500, 3150.333 1834.150, 3150.477 1832.500 C 3150.622 1830.850, 3150.847 1829.500, 3150.977 1829.500 C 3151.108 1829.500, 3151.333 1828.150, 3151.477 1826.500 C 3151.622 1824.850, 3151.847 1823.500, 3151.977 1823.500 C 3152.108 1823.500, 3152.333 1822.150, 3152.477 1820.500 C 3152.622 1818.850, 3152.847 1817.500, 3152.977 1817.500 C 3153.108 1817.500, 3153.333 1816.150, 3153.477 1814.500 C 3153.622 1812.850, 3153.847 1811.500, 3153.977 1811.500 C 3154.108 1811.500, 3154.333 1810.150, 3154.477 1808.500 C 3154.622 1806.850, 3154.847 1805.500, 3154.977 1805.500 C 3155.108 1805.500, 3155.333 1804.150, 3155.477 1802.500 C 3155.622 1800.850, 3155.847 1799.500, 3155.977 1799.500 C 3156.108 1799.500, 3156.333 1798.150, 3156.477 1796.500 C 3156.622 1794.850, 3156.847 1793.500, 3156.977 1793.500 C 3157.108 1793.500, 3157.333 1792.150, 3157.477 1790.500 C 3157.622 1788.850, 3157.847 1787.500, 3157.977 1787.500 C 3158.108 1787.500, 3158.333 1786.150, 3158.477 1784.500 C 3158.622 1782.850, 3158.847 1781.500, 3158.977 1781.500 C 3159.108 1781.500, 3159.333 1780.150, 3159.477 1778.500 C 3159.622 1776.850, 3159.847 1775.500, 3159.977 1775.500 C 3160.108 1775.500, 3160.333 1774.150, 3160.477 1772.500 C 3160.622 1770.850, 3160.847 1769.500, 3160.977 1769.500 C 3161.108 1769.500, 3161.333 1768.150, 3161.477 1766.500 C 3161.622 1764.850, 3161.847 1763.500, 3161.977 1763.500 C 3162.108 1763.500, 3162.333 1762.150, 3162.477 1760.500 C 3162.622 1758.850, 3162.847 1757.500, 3162.977 1757.500 C 3163.108 1757.500, 3163.333 1756.150, 3163.477 1754.500 C 3163.622 1752.850, 3163.847 1751.500, 3163.977 1751.500 C 3164.108 1751.500, 3164.333 1750.150, 3164.477 1748.500 C 3164.622 1746.850, 3164.847 1745.500, 3164.977 1745.500 C 3165.108 1745.500, 3165.333 1744.150, 3165.477 1742.500 C 3165.622 1740.850, 3165.847 1739.500, 3165.977 1739.500 C 3166.108 1739.500, 3166.333 1738.150, 3166.477 1736.500 C 3166.622 1734.850, 3166.847 1733.500, 3166.977 1733.500 C 3167.108 1733.500, 3167.333 1732.150, 3167.477 1730.500 C 3167.622 1728.850, 3167.847 1727.500, 3167.977 1727.500 C 3168.108 1727.500, 3168.333 1726.150, 3168.477 1724.500 C 3168.622 1722.850, 3168.847 1721.500, 3168.977 1721.500 C 3169.108 1721.500, 3169.333 1720.150, 3169.477 1718.500 C 3169.622 1716.850, 3169.847 1715.500, 3169.977 1715.500 C 3170.108 1715.500, 3170.333 1714.150, 3170.477 1712.500 C 3170.622 1710.850, 3170.847 1709.500, 3170.977 1709.500 C 3171.108 1709.500, 3171.333 1708.150, 3171.477 1706.500 C 3171.622 1704.850, 3171.847 1703.500, 3171.977 1703.500 C 3172.108 1703.500, 3172.333 1702.150, 3172.477 1700.500 C 3172.622 1698.850, 3172.847 1697.500, 3172.977 1697.500 C 3173.108 1697.500, 3173.333 1696.150, 3173.477 1694.500 C 3173.622 1692.850, 3173.847 1691.500, 3173.977 1691.500 C 3174.108 1691.500, 3174.333 1690.150, 3174.477 1688.500 C 3174.622 1686.850, 3174.847 1685.500, 3174.977 1685.500 C 3175.108 1685.500, 3175.333 1684.150, 3175.477 1682.500 C 3175.622 1680.850, 3175.847 1679.500, 3175.977 1679.500 C 3176.108 1679.500, 3176.333 1678.150, 3176.477 1676.500 C 3176.622 1674.850, 3176.847 1673.500, 3176.977 1673.500 C 3177.108 1673.500, 3177.333 1672.150, 3177.477 1670.500 C 3177.622 1668.850, 3177.847 1667.500, 3177.977 1667.500 C 3178.108 1667.500, 3178.333 1666.150, 3178.477 1664.500 C 3178.622 1662.850, 3178.847 1661.500, 3178.977 1661.500 C 3179.108 1661.500, 3179.333 1660.150, 3179.477 1658.500 C 3179.622 1656.850, 3179.847 1655.500, 3179.977 1655.500 C 3180.108 1655.500, 3180.333 1654.150, 3180.477 1652.500 C 3180.622 1650.850, 3180.847 1649.500, 3180.977 1649.500 C 3181.108 1649.500, 3181.333 1648.150, 3181.477 1646.500 C 3181.622 1644.850, 3181.847 1643.500, 3181.977 1643.500 C 3182.108 1643.500, 3182.333 1642.150, 3182.477 1640.500 C 3182.622 1638.850, 3182.847 1637.500, 3182.977 1637.500 C 3183.108 1637.500, 3183.333 1636.150, 3183.477 1634.500 C 3183.622 1632.850, 3183.847 1631.500, 3183.977 1631.500 C 3184.108 1631.500, 3184.333 1630.150, 3184.477 1628.500 C 3184.622 1626.850, 3184.847 1625.500, 3184.977 1625.500 C 3185.108 1625.500, 3185.333 1624.150, 3185.477 1622.500 C 3185.622 1620.850, 3185.847 1619.500, 3185.977 1619.500 C 3186.108 1619.500, 3186.333 1618.150, 3186.477 1616.500 C 3186.622 1614.850, 3186.847 1613.500, 3186.977 1613.500 C 3187.108 1613.500, 3187.333 1612.150, 3187.477 1610.500 C 3187.622 1608.850, 3187.847 1607.500, 3187.977 1607.500 C 3188.108 1607.500, 3188.333 1606.150, 3188.477 1604.500 C 3188.622 1602.850, 3188.847 1601.500, 3188.977 1601.500 C 3189.108 1601.500, 3189.333 1600.150, 3189.477 1598.500 C 3189.622 1596.850, 3189.847 1595.500, 3189.977 1595.500 C 3190.108 1595.500, 3190.333 1594.150, 3190.477 1592.500 C 3190.622 1590.850, 3190.847 1589.500, 3190.977 1589.500 C 3191.108 1589.500, 3191.333 1588.150, 3191.477 1586.500 C 3191.622 1584.850, 3191.847 1583.500, 3191.977 1583.500 C 3192.108 1583.500, 3192.333 1582.150, 3192.477 1580.500 C 3192.622 1578.850, 3192.847 1577.500, 3192.977 1577.500 C 3193.108 1577.500, 3193.333 1576.150, 3193.477 1574.500 C 3193.622 1572.850, 3193.847 1571.500, 3193.977 1571.500 C 3194.108 1571.500, 3194.333 1570.150, 3194.477 1568.500 C 3194.622 1566.850, 3194.847 1565.500, 3194.977 1565.500 C 3195.108 1565.500, 3195.333 1564.150, 3195.477 1562.500 C 3195.622 1560.850, 3195.847 1559.500, 3195.977 1559.500 C 3196.108 1559.500, 3196.333 1558.150, 3196.477 1556.500 C 3196.622 1554.850, 3196.847 1553.500, 3196.977 1553.500 C 3197.108 1553.500, 3197.333 1552.150, 3197.477 1550.500 C 3197.622 1548.850, 3197.847 1547.500, 3197.977 1547.500 C 3198.108 1547.500, 3198.333 1546.150, 3198.477 1544.500 C 3198.622 1542.850, 3198.848 1541.388, 3198.981 1541.250 C 3199.114 1541.112, 3199.272 1539.987, 3199.333 1538.750 L 3199.444 1536.500 2751.681 1536.249 L 2303.918 1535.998 2304.374 1324.749 C 2304.625 1208.562, 2305.105 1109.900, 2305.441 1105.500 C 2306.660 1089.521, 2306.928 1086.413, 2307.512 1081.500 C 2307.838 1078.750, 2308.106 1074.813, 2308.106 1072.750 C 2308.106 1070.688, 2308.487 1069, 2308.953 1069 C 2309.419 1069, 2309.684 1067.537, 2309.542 1065.750 C 2309.400 1063.963, 2309.524 1062.077, 2309.818 1061.560 C 2310.112 1061.043, 2310.525 1058.128, 2310.735 1055.083 C 2310.945 1052.038, 2311.516 1049.299, 2312.004 1048.997 C 2312.493 1048.695, 2312.967 1046.435, 2313.059 1043.974 C 2313.151 1041.513, 2313.706 1037.925, 2314.292 1036 C 2314.879 1034.075, 2315.283 1031.487, 2315.191 1030.250 C 2315.098 1029.013, 2315.428 1028, 2315.923 1028 C 2316.419 1028, 2316.700 1026.875, 2316.549 1025.500 C 2316.399 1024.125, 2316.588 1023, 2316.971 1023 C 2317.676 1023, 2317.917 1021.999, 2318.292 1017.500 C 2318.406 1016.125, 2318.812 1015, 2319.193 1015 C 2319.574 1015, 2319.714 1014.109, 2319.504 1013.021 C 2319.294 1011.933, 2319.553 1010.776, 2320.078 1010.452 C 2320.603 1010.127, 2320.761 1009.423, 2320.430 1008.887 C 2320.099 1008.351, 2320.588 1006.751, 2321.518 1005.333 C 2322.651 1003.602, 2322.762 1003.022, 2321.854 1003.569 C 2320.798 1004.204, 2320.745 1004.066, 2321.612 1002.942 C 2322.224 1002.149, 2323.082 1000.150, 2323.518 998.500 C 2323.955 996.850, 2324.494 994.825, 2324.715 994 C 2324.936 993.175, 2325.166 991.938, 2325.225 991.250 C 2325.285 990.563, 2325.708 990, 2326.167 990 C 2326.625 990, 2327 988.902, 2327 987.559 C 2327 986.216, 2327.430 984.852, 2327.956 984.527 C 2328.482 984.202, 2328.659 983.275, 2328.349 982.468 C 2328.040 981.661, 2328.332 981, 2329 981 C 2329.668 981, 2329.960 980.339, 2329.651 979.532 C 2329.341 978.725, 2329.525 977.794, 2330.060 977.463 C 2330.595 977.132, 2330.774 976.443, 2330.457 975.931 C 2330.141 975.419, 2330.385 975, 2331 975 C 2331.615 975, 2331.840 974.550, 2331.500 974 C 2331.160 973.450, 2331.263 973, 2331.728 973 C 2332.194 973, 2332.636 972.212, 2332.711 971.250 C 2332.786 970.288, 2333.405 968.150, 2334.085 966.500 C 2334.766 964.850, 2335.250 963.162, 2335.161 962.750 C 2335.073 962.337, 2335.477 962, 2336.059 962 C 2336.641 962, 2336.840 961.550, 2336.500 961 C 2336.160 960.450, 2336.344 960, 2336.910 960 C 2337.475 960, 2337.678 959.325, 2337.362 958.500 C 2337.045 957.675, 2337.284 957, 2337.893 957 C 2338.502 957, 2339 956.100, 2339 955 C 2339 953.900, 2339.402 953, 2339.893 953 C 2340.384 953, 2341.054 952.302, 2341.382 951.448 C 2341.719 950.568, 2341.554 950.158, 2341 950.500 C 2340.446 950.842, 2340.281 950.432, 2340.618 949.552 C 2340.946 948.698, 2341.586 948, 2342.040 948 C 2342.827 948, 2344.099 945.094, 2344.622 942.100 C 2344.757 941.330, 2345.459 940.325, 2346.184 939.865 C 2346.908 939.406, 2347.157 939.024, 2346.737 939.015 C 2346.318 939.007, 2347.088 937.237, 2348.448 935.083 C 2349.808 932.929, 2351.211 930.007, 2351.567 928.590 C 2351.922 927.173, 2352.541 926.216, 2352.942 926.464 C 2353.626 926.887, 2357.058 920.726, 2356.901 919.356 C 2356.862 919.008, 2357.205 918.448, 2357.665 918.112 C 2358.124 917.775, 2359.175 916.626, 2360 915.558 C 2361.333 913.832, 2361.333 913.709, 2360 914.455 C 2359.175 914.917, 2359.512 914.310, 2360.750 913.108 C 2361.988 911.906, 2363 910.238, 2363 909.402 C 2363 908.469, 2363.483 908.160, 2364.250 908.601 C 2364.938 908.997, 2365.161 908.947, 2364.746 908.490 C 2363.903 907.561, 2366.574 902.941, 2368.678 901.689 C 2369.428 901.242, 2369.781 900.455, 2369.462 899.939 C 2369.143 899.422, 2369.359 899, 2369.941 899 C 2370.523 899, 2371 898.298, 2371 897.441 C 2371 896.584, 2371.406 896.133, 2371.903 896.440 C 2372.399 896.747, 2373.242 895.761, 2373.777 894.249 C 2374.311 892.737, 2377.703 888.376, 2381.315 884.558 C 2384.926 880.740, 2387.713 877.345, 2387.508 877.012 C 2387.201 876.516, 2401.701 862.236, 2409.547 855.308 C 2410.673 854.313, 2410.898 853.942, 2410.047 854.483 C 2409.032 855.127, 2409.156 854.697, 2410.405 853.233 C 2411.453 852.005, 2412.807 851, 2413.414 851 C 2414.022 851, 2415.081 850.100, 2415.768 849 C 2416.455 847.900, 2417.482 847, 2418.051 847 C 2419.231 847, 2421.215 845.483, 2424.220 842.284 C 2425.365 841.065, 2426.661 840.290, 2427.101 840.562 C 2427.540 840.834, 2428.407 840.108, 2429.027 838.949 C 2429.648 837.790, 2431.470 836.383, 2433.077 835.823 C 2434.685 835.263, 2436 834.398, 2436 833.902 C 2436 833.406, 2436.609 833, 2437.354 833 C 2438.099 833, 2440.011 831.779, 2441.604 830.288 C 2443.197 828.796, 2445.072 827.484, 2445.770 827.373 C 2446.469 827.262, 2447.966 826.120, 2449.097 824.835 C 2450.227 823.551, 2450.807 823.175, 2450.384 824 C 2449.701 825.333, 2449.832 825.333, 2451.558 824 C 2452.626 823.175, 2454.048 821.825, 2454.718 821 C 2455.388 820.175, 2455.951 819.868, 2455.968 820.318 C 2455.986 820.768, 2457.350 820.175, 2459 819 C 2460.650 817.825, 2462 817.205, 2462 817.623 C 2462 818.041, 2462.575 817.596, 2463.277 816.635 C 2463.980 815.674, 2465.285 814.781, 2466.177 814.650 C 2467.068 814.519, 2468.588 813.757, 2469.553 812.956 C 2470.518 812.155, 2471.576 811.531, 2471.904 811.569 C 2473.190 811.717, 2478 809.517, 2478 808.781 C 2478 808.351, 2478.900 808, 2480 808 C 2481.100 808, 2482 807.570, 2482 807.045 C 2482 806.520, 2483.575 805.795, 2485.500 805.434 C 2487.425 805.073, 2489 804.377, 2489 803.889 C 2489 803.400, 2489.338 803.090, 2489.750 803.200 C 2490.162 803.310, 2492.474 802.421, 2494.886 801.225 C 2497.298 800.029, 2499.622 799.267, 2500.051 799.531 C 2500.479 799.796, 2500.980 799.583, 2501.165 799.059 C 2501.349 798.535, 2503.063 797.833, 2504.974 797.499 C 2506.885 797.165, 2508.685 796.532, 2508.974 796.090 C 2509.263 795.649, 2511.188 794.978, 2513.250 794.599 C 2515.313 794.220, 2517 793.432, 2517 792.848 C 2517 792.264, 2517.661 792.040, 2518.468 792.349 C 2519.275 792.659, 2520.206 792.475, 2520.537 791.940 C 2520.868 791.405, 2521.557 791.226, 2522.069 791.543 C 2522.581 791.859, 2523 791.754, 2523.001 791.309 C 2523.001 790.864, 2524.185 790.431, 2525.631 790.348 C 2527.078 790.264, 2528.540 789.769, 2528.881 789.249 C 2529.221 788.728, 2530.175 788.261, 2531 788.210 C 2533.487 788.056, 2535.905 787.429, 2536.569 786.765 C 2536.914 786.420, 2537.781 786.362, 2538.497 786.637 C 2539.212 786.912, 2540.099 786.648, 2540.468 786.052 C 2540.837 785.455, 2541.557 785.226, 2542.069 785.543 C 2542.581 785.859, 2543 785.681, 2543 785.148 C 2543 784.614, 2543.787 784.304, 2544.750 784.460 C 2545.713 784.616, 2547.043 784.312, 2547.706 783.785 C 2548.370 783.259, 2549.382 783.118, 2549.956 783.473 C 2550.530 783.828, 2551 783.681, 2551 783.148 C 2551 782.614, 2551.787 782.304, 2552.750 782.460 C 2553.713 782.616, 2555.017 782.333, 2555.649 781.833 C 2556.281 781.332, 2558.351 780.783, 2560.249 780.613 C 2562.148 780.442, 2564.105 780.056, 2564.600 779.754 C 2565.095 779.451, 2567.300 779.046, 2569.500 778.852 C 2571.700 778.658, 2573.758 778.152, 2574.074 777.726 C 2574.390 777.300, 2576.976 776.850, 2579.822 776.726 C 2582.668 776.602, 2584.997 776.241, 2584.998 775.925 C 2584.999 775.609, 2586.463 775.295, 2588.250 775.227 C 2592.583 775.064, 2596.387 774.488, 2597.550 773.819 C 2598.073 773.519, 2599.625 773.380, 2601 773.511 C 2602.375 773.641, 2603.950 773.483, 2604.500 773.160 C 2605.050 772.837, 2607.075 772.481, 2609 772.369 C 2610.925 772.258, 2614.975 771.863, 2618 771.493 C 2628.087 770.258, 2644.606 769.208, 2663.500 768.600 C 2669.550 768.406, 2763.938 768.191, 2873.250 768.123 L 3072 768 3072 383.977 L 3072 -0.046 2727.619 0.025 C 2538.209 0.064, 2383.026 0.308, 2382.766 0.567" stroke="none" fill="#3c5c9c" fill-rule="evenodd"/></svg>