<svg xmlns="http://www.w3.org/2000/svg" width="4096" height="4096" viewBox="0 0 4096 4096" version="1.1"><path d="M 356 2846.931 C 244.193 2869.905, 145.063 2903.701, 42.870 2953.686 L 17.240 2966.222 17.534 2973.361 C 17.696 2977.288, 17.878 2980.500, 17.939 2980.500 C 18 2980.500, 18.261 2984.425, 18.519 2989.223 C 18.777 2994.021, 20.126 3008.646, 21.518 3021.723 C 33.738 3136.589, 53.567 3232.614, 84.142 3325 C 139.545 3492.408, 213.649 3617.742, 326.617 3735.107 C 403.859 3815.356, 482.138 3876.399, 572 3926.458 C 666.561 3979.136, 791.449 4024.428, 911 4049.401 C 1003.323 4068.687, 1095.041 4079.112, 1224 4084.980 C 1404.757 4093.204, 1501.208 4095.159, 1736 4095.360 L 1899.500 4095.500 1899.338 4071.500 C 1898.674 3973.016, 1877.367 3841.537, 1844.953 3735.901 L 1842.007 3726.302 1687.754 3725.679 C 1480.037 3724.841, 1428.282 3723.721, 1260.500 3716.433 C 1197.500 3713.696, 1168.228 3711.938, 1136 3708.953 C 1008.069 3697.103, 909.685 3674.149, 816 3634.292 C 733.134 3599.038, 671.569 3557.308, 606.138 3492.044 C 529.740 3415.842, 484.555 3344.713, 445.708 3239.500 C 408.909 3139.833, 388.932 3027.924, 381.445 2879.500 C 381.085 2872.350, 380.596 2864.250, 380.360 2861.500 C 380.124 2858.750, 379.842 2853.238, 379.734 2849.250 C 379.625 2845.262, 379.529 2842.023, 379.518 2842.051 C 379.508 2842.079, 368.925 2844.275, 356 2846.931" stroke="none" fill="#fc8943" fill-rule="evenodd"/><path d="M 1615 0.638 C 1561.838 1.003, 1446.734 2.867, 1406 4.024 C 1333.888 6.071, 1199.857 11.727, 1157 14.530 C 1008.971 24.214, 886.904 46.092, 774 83.175 C 597.302 141.212, 467.399 219.817, 343.608 343.608 C 220.449 466.767, 141.952 596.074, 84.155 771 C 44.393 891.342, 21.698 1022.486, 13.029 1182 C 10.344 1231.409, 5.669 1347.794, 4.032 1406 C 0.816 1520.335, 0.500 1577.799, 0.500 2048 C 0.500 2518.284, 0.818 2575.951, 4.035 2690 C 6.465 2776.142, 13.699 2941.056, 15.505 2951.500 C 15.696 2952.600, 15.885 2956.540, 15.926 2960.255 L 16 2967.010 34.750 2957.628 C 136.536 2906.696, 243.555 2869.836, 355.986 2846.986 L 379.472 2842.213 379.424 2838.357 C 379.397 2836.235, 379.056 2826.850, 378.667 2817.500 C 371.941 2656.166, 371.311 2619.602, 369.871 2307.116 C 368.179 1939.686, 370.009 1538.712, 373.989 1405 C 375.993 1337.646, 381.080 1218.260, 383.532 1181 C 392.700 1041.681, 414.526 934.388, 453.815 835.500 C 493.468 735.696, 539.886 667.264, 619.937 590.594 C 676.292 536.619, 734.687 497.406, 804 466.997 C 903.635 423.284, 1003.074 399.411, 1137 387.049 C 1169.274 384.070, 1199.428 382.277, 1263.500 379.528 C 1443.590 371.802, 1472.822 371.274, 1793.781 369.960 C 2168.436 368.427, 2560.079 370.191, 2689 373.993 C 2756.960 375.997, 2873.822 380.956, 2914 383.541 C 3079.424 394.183, 3206.185 424.259, 3318.500 479.514 C 3382.829 511.162, 3434.947 549.129, 3490.892 605.099 C 3547.054 661.285, 3584.809 713.112, 3616.486 777.500 C 3671.732 889.797, 3701.707 1016.114, 3712.472 1182 C 3714.995 1220.877, 3719.941 1337.219, 3722.015 1406.500 C 3725.898 1536.191, 3727.711 1936.157, 3726.084 2304.250 C 3724.804 2593.768, 3724.057 2645.506, 3719.461 2763 C 3715.296 2869.471, 3712.661 2918.700, 3708.942 2959.500 C 3698.103 3078.436, 3677.522 3171.260, 3642.315 3260 C 3604.701 3354.806, 3562.077 3419.826, 3490.772 3491.168 C 3410.467 3571.516, 3331.828 3619.367, 3215.500 3658.671 C 3138.763 3684.598, 3051.719 3701.342, 2949 3709.938 C 2884.805 3715.310, 2736.582 3721.433, 2607.500 3724.045 C 2540.616 3725.398, 2231.687 3726.925, 2016.414 3726.967 L 1842.329 3727 1848.164 3746.750 C 1878.888 3850.751, 1898.759 3976.968, 1899.349 4071.864 L 1899.500 4096.227 2221 4095.690 C 2602.391 4095.053, 2658.150 4094.223, 2839.500 4086.481 C 2959.943 4081.339, 3020.435 4076.291, 3097.714 4064.935 C 3279.510 4038.218, 3446.136 3978.767, 3580.500 3892.679 C 3678.456 3829.917, 3778.613 3736.143, 3851.981 3638.500 C 3921.544 3545.920, 3971.347 3448.071, 4012.321 3323.479 C 4045.809 3221.651, 4066.965 3112.679, 4077.939 2985.500 C 4086.655 2884.479, 4094.963 2643.154, 4094.991 2490.191 C 4094.997 2458.908, 4095.339 2443.091, 4096 2443.500 C 4096.666 2443.912, 4096.977 2311.445, 4096.930 2046.809 C 4096.890 1824.303, 4096.481 1650.380, 4096 1651.500 C 4095.503 1652.656, 4095.107 1633.451, 4095.060 1606 C 4094.792 1447.618, 4086.620 1211.113, 4077.939 1110.500 C 4065.349 964.591, 4039.540 843.331, 3995.996 725.500 C 3947.651 594.682, 3883.742 487.021, 3797.337 390.841 C 3674.693 254.322, 3543.420 164.498, 3374.500 101.514 C 3253.057 56.232, 3132.425 30.529, 2980.500 17.566 C 2908.655 11.436, 2753.290 5.076, 2597 1.867 C 2550.549 0.913, 1725.439 -0.119, 1615 0.638 M 3110 710.513 C 2999.945 725.252, 2913.247 810.743, 2897.555 920 C 2887.691 988.677, 2907.986 1059.605, 2952.779 1113 C 2992.580 1160.446, 3047.497 1190.345, 3111 1199.142 C 3125.304 1201.123, 3160.715 1200.828, 3175.500 1198.604 C 3229.024 1190.554, 3277.479 1166.326, 3314.904 1128.901 C 3352.533 1091.272, 3375.750 1045.556, 3384.682 991.500 C 3386.123 982.782, 3386.495 975.002, 3386.476 954 C 3386.454 930.828, 3386.163 925.889, 3384.156 914.667 C 3374.698 861.785, 3351.776 817.578, 3314.570 780.462 C 3278.213 744.195, 3233.578 721.153, 3181.872 711.961 C 3165.882 709.118, 3126.361 708.322, 3110 710.513 M 1998 996.993 C 1860.983 1004.310, 1735.459 1034.498, 1614.500 1089.223 C 1516.461 1133.578, 1428.977 1190.646, 1346 1264.370 C 1328.632 1279.802, 1279.872 1328.556, 1264.361 1346 C 1216.013 1400.372, 1174.819 1456.859, 1139.290 1517.500 C 1062.477 1648.604, 1014.489 1797.889, 1000.583 1949 C 997.123 1986.596, 996.551 2000.625, 996.551 2048 C 996.551 2095.375, 997.123 2109.404, 1000.583 2147 C 1012.746 2279.168, 1050.872 2409.804, 1111.925 2528.500 C 1187.397 2675.229, 1297.350 2803.276, 1431.163 2900.273 C 1615.447 3033.854, 1836.136 3103.388, 2064 3099.666 C 2124.257 3098.682, 2169.942 3094.530, 2226 3084.943 C 2421.056 3051.584, 2599.608 2965.371, 2749.263 2832.286 C 2767.363 2816.191, 2815.963 2767.646, 2831.644 2750 C 2975.232 2588.418, 3064.484 2393.602, 3091.408 2183 C 3097.692 2133.846, 3099.432 2104.613, 3099.444 2048 C 3099.455 1991.520, 3097.721 1962.380, 3091.408 1913 C 3072.035 1761.465, 3019.942 1616.888, 2937.689 1486.381 C 2880.562 1395.739, 2805.853 1310.381, 2723 1241.088 C 2578.965 1120.626, 2407.454 1041.474, 2223.500 1010.569 C 2188.920 1004.760, 2157.476 1001.089, 2115.500 997.960 C 2097.121 996.591, 2017.765 995.937, 1998 996.993 M 2004 1367.064 C 1882.231 1375.825, 1771.513 1413.033, 1672.500 1478.469 C 1634.146 1503.816, 1603.582 1528.598, 1570.155 1561.452 C 1516.011 1614.667, 1473.482 1672.628, 1439.511 1739.500 C 1400.114 1817.053, 1377.131 1897.111, 1368.315 1987.500 C 1365.816 2013.132, 1365.816 2082.868, 1368.315 2108.500 C 1377.131 2198.889, 1400.114 2278.947, 1439.511 2356.500 C 1487.248 2450.472, 1556.079 2532.108, 1641 2595.476 C 1735.110 2665.701, 1847.006 2710.620, 1963.500 2724.937 C 1995.686 2728.893, 2006.932 2729.500, 2048 2729.500 C 2089.081 2729.500, 2100.354 2728.891, 2132.500 2724.934 C 2329.862 2700.641, 2507.218 2590.419, 2617.531 2423.500 C 2681.083 2327.337, 2716.998 2223.163, 2728.200 2102.500 C 2729.943 2083.728, 2729.944 2012.287, 2728.202 1993.500 C 2717.015 1872.864, 2681.096 1768.683, 2617.531 1672.500 C 2566.817 1595.762, 2501.267 1530.051, 2425 1479.493 C 2329.698 1416.317, 2225.307 1379.572, 2109.500 1368.440 C 2089.589 1366.526, 2023.460 1365.663, 2004 1367.064 M 0.495 2048 C 0.495 2266.625, 0.610 2356.063, 0.750 2246.750 C 0.890 2137.438, 0.890 1958.563, 0.750 1849.250 C 0.610 1739.938, 0.495 1829.375, 0.495 2048" stroke="none" fill="#e23587" fill-rule="evenodd"/></svg>